<svg width="134" height="20" viewBox="0 0 134 20" fill="none" xmlns="http://www.w3.org/2000/svg">
<path d="M5.08276 19.0449C4.59284 19.2962 4.03691 18.8558 4.13591 18.2935L5.18938 12.2901L0.717868 8.03051C0.300291 7.63197 0.517329 6.90343 1.07706 6.82473L7.29377 5.94135L10.0658 0.449376C10.3158 -0.0456252 10.9923 -0.0456252 11.2423 0.449376L14.0144 5.94135L20.2311 6.82473C20.7908 6.90343 21.0078 7.63197 20.589 8.03051L16.1187 12.2901L17.1722 18.2935C17.2712 18.8558 16.7153 19.2962 16.2254 19.0449L10.6522 16.1815L5.08149 19.0449H5.08276Z" fill="#FAB73C"/>
<path d="M33.2556 19.0449C32.7657 19.2962 32.2098 18.8558 32.3088 18.2935L33.3622 12.2901L28.8907 8.03051C28.4731 7.63197 28.6902 6.90343 29.2499 6.82473L35.4666 5.94135L38.2386 0.449376C38.4887 -0.0456252 39.1652 -0.0456252 39.4152 0.449376L42.1872 5.94135L48.4039 6.82473C48.9636 6.90343 49.1807 7.63197 48.7618 8.03051L44.2916 12.2901L45.3451 18.2935C45.4441 18.8558 44.8881 19.2962 44.3982 19.0449L38.825 16.1815L33.2543 19.0449H33.2556Z" fill="#FAB73C"/>
<path d="M61.429 19.0449C60.939 19.2962 60.3831 18.8558 60.4821 18.2935L61.5356 12.2901L57.0641 8.03051C56.6465 7.63197 56.8635 6.90343 57.4233 6.82473L63.64 5.94135L66.412 0.449376C66.662 -0.0456252 67.3385 -0.0456252 67.5885 0.449376L70.3605 5.94135L76.5772 6.82473C77.137 6.90343 77.354 7.63197 76.9352 8.03051L72.4649 12.2901L73.5184 18.2935C73.6174 18.8558 73.0615 19.2962 72.5715 19.0449L66.9983 16.1815L61.4277 19.0449H61.429Z" fill="#FAB73C"/>
<path d="M89.6018 19.0449C89.1119 19.2962 88.556 18.8558 88.655 18.2935L89.7084 12.2901L85.2369 8.03051C84.8193 7.63197 85.0364 6.90343 85.5961 6.82473L91.8128 5.94135L94.5848 0.449376C94.8349 -0.0456252 95.5114 -0.0456252 95.7614 0.449376L98.5334 5.94135L104.75 6.82473C105.31 6.90343 105.527 7.63197 105.108 8.03051L100.638 12.2901L101.691 18.2935C101.79 18.8558 101.234 19.2962 100.744 19.0449L95.1712 16.1815L89.6005 19.0449H89.6018Z" fill="#FAB73C"/>
<path d="M117.775 19.0449C117.285 19.2962 116.729 18.8558 116.828 18.2935L117.882 12.2901L113.41 8.03051C112.992 7.63197 113.209 6.90343 113.769 6.82473L119.986 5.94135L122.758 0.449376C123.008 -0.0456252 123.684 -0.0456252 123.934 0.449376L126.706 5.94135L132.923 6.82473C133.483 6.90343 133.7 7.63197 133.281 8.03051L128.811 12.2901L129.864 18.2935C129.963 18.8558 129.407 19.2962 128.917 19.0449L123.344 16.1815L117.774 19.0449H117.775Z" fill="#FAB73C"/>
<mask id="mask0_341_397" style="mask-type:alpha" maskUnits="userSpaceOnUse" x="113" y="0" width="21" height="20">
<path d="M117.775 19.0058C117.285 19.2572 116.729 18.8167 116.828 18.2545L117.882 12.251L113.41 7.99144C112.992 7.5929 113.209 6.86436 113.769 6.78567L119.986 5.90229L122.758 0.410313C123.008 -0.0846877 123.684 -0.0846877 123.934 0.410313L126.706 5.90229L132.923 6.78567C133.483 6.86436 133.7 7.5929 133.281 7.99144L128.811 12.251L129.864 18.2545C129.963 18.8167 129.407 19.2572 128.917 19.0058L123.344 16.1425L117.774 19.0058H117.775Z" fill="#FAB73C"/>
</mask>
<g mask="url(#mask0_341_397)">
<path d="M117.775 19.0058C117.285 19.2572 116.729 18.8167 116.828 18.2545L117.882 12.251L113.41 7.99144C112.992 7.5929 113.209 6.86436 113.769 6.78567L119.986 5.90229L122.758 0.410313C123.008 -0.0846877 123.684 -0.0846877 123.934 0.410313L126.706 5.90229L132.923 6.78567C133.483 6.86436 133.7 7.5929 133.281 7.99144L128.811 12.251L129.864 18.2545C129.963 18.8167 129.407 19.2572 128.917 19.0058L123.344 16.1425L117.774 19.0058H117.775Z" fill="#FAB73C"/>
<rect x="124" y="-1.96094" width="13" height="23" fill="#D9D9D9"/>
</g>
</svg>
