<svg width="24" height="24" viewBox="0 0 24 24" fill="none" xmlns="http://www.w3.org/2000/svg">
<path d="M22.9098 13.6177C22.8004 13.2634 22.5869 12.9503 22.2972 12.7189C22.0075 12.4875 21.655 12.3486 21.2853 12.3202L20.6021 12.2609C20.4366 12.2473 20.2824 12.1718 20.1702 12.0495C20.058 11.9271 19.9961 11.7669 19.9968 11.6009V2.43066C19.9968 2.03284 19.8388 1.65131 19.5575 1.37C19.2762 1.0887 18.8946 0.930664 18.4968 0.930664H5.50456C5.10674 0.930664 4.72521 1.0887 4.4439 1.37C4.1626 1.65131 4.00456 2.03284 4.00456 2.43066V11.6002C4.00548 11.766 3.94371 11.9261 3.83162 12.0484C3.71952 12.1706 3.56538 12.246 3.40006 12.2594L2.71456 12.3194C2.34645 12.352 1.99617 12.4926 1.70774 12.7237C1.4193 12.9547 1.20556 13.2658 1.09337 13.6179C0.981183 13.97 0.975547 14.3474 1.07717 14.7027C1.1788 15.058 1.38315 15.3754 1.66456 15.6149L10.0578 22.7512C10.5989 23.2149 11.2881 23.4698 12.0007 23.4698C12.7133 23.4698 13.4024 23.2149 13.9436 22.7512L22.3376 15.6157C22.6201 15.3767 22.8253 15.0593 22.9272 14.7036C23.029 14.3479 23.023 13.9699 22.9098 13.6177ZM12.0003 10.3499C12.7588 10.3474 13.4927 10.6187 14.0672 11.1138C14.6417 11.609 15.0183 12.2948 15.1277 13.0454C15.2372 13.7959 15.0721 14.5607 14.663 15.1993C14.2538 15.8379 13.6279 16.3075 12.9003 16.5217V17.0999C12.9003 17.3386 12.8055 17.5675 12.6367 17.7363C12.4679 17.9051 12.239 17.9999 12.0003 17.9999C11.7616 17.9999 11.5327 17.9051 11.3639 17.7363C11.1951 17.5675 11.1003 17.3386 11.1003 17.0999V16.5217C10.4497 16.3298 9.87831 15.933 9.4713 15.3903C9.06428 14.8476 8.84333 14.188 8.84131 13.5097C8.84131 13.271 8.93613 13.0421 9.10492 12.8733C9.2737 12.7045 9.50262 12.6097 9.74131 12.6097C9.98001 12.6097 10.2089 12.7045 10.3777 12.8733C10.5465 13.0421 10.6413 13.271 10.6413 13.5097C10.6413 13.7786 10.7211 14.0416 10.8705 14.2652C11.02 14.4888 11.2324 14.6631 11.4809 14.766C11.7294 14.8689 12.0028 14.8958 12.2666 14.8432C12.5304 14.7907 12.7727 14.6611 12.9628 14.4709C13.153 14.2806 13.2824 14.0383 13.3348 13.7745C13.3872 13.5107 13.3601 13.2372 13.2571 12.9888C13.1541 12.7403 12.9797 12.528 12.756 12.3787C12.5322 12.2294 12.2693 12.1498 12.0003 12.1499C11.2419 12.1524 10.508 11.8812 9.93344 11.386C9.35892 10.8908 8.98235 10.205 8.8729 9.45448C8.76345 8.70395 8.92848 7.93914 9.33767 7.30052C9.74686 6.6619 10.3727 6.19237 11.1003 5.97816V5.39991C11.1003 5.16122 11.1951 4.9323 11.3639 4.76352C11.5327 4.59474 11.7616 4.49991 12.0003 4.49991C12.239 4.49991 12.4679 4.59474 12.6367 4.76352C12.8055 4.9323 12.9003 5.16122 12.9003 5.39991V5.97816C13.5511 6.16991 14.1226 6.56665 14.5298 7.10935C14.9369 7.65205 15.158 8.31171 15.1601 8.99016C15.1601 9.22886 15.0652 9.45778 14.8965 9.62656C14.7277 9.79534 14.4988 9.89016 14.2601 9.89016C14.0214 9.89016 13.7924 9.79534 13.6237 9.62656C13.4549 9.45778 13.3601 9.22886 13.3601 8.99016C13.3601 8.72123 13.2803 8.45834 13.1309 8.23473C12.9815 8.01112 12.7691 7.83684 12.5207 7.73392C12.2722 7.631 11.9988 7.60408 11.735 7.65654C11.4713 7.70901 11.229 7.83851 11.0388 8.02868C10.8487 8.21884 10.7192 8.46112 10.6667 8.72489C10.6142 8.98866 10.6412 9.26206 10.7441 9.51052C10.847 9.75898 11.0213 9.97134 11.2449 10.1208C11.4685 10.2702 11.7314 10.3499 12.0003 10.3499Z" fill="white"/>
</svg>
