<svg width="20" height="19" viewBox="0 0 20 19" fill="none" xmlns="http://www.w3.org/2000/svg">
<path d="M2.72251 18.9287C2.70951 18.9287 2.69751 18.9287 2.68351 18.9277C2.36851 18.9117 2.05951 18.8437 1.76551 18.7247C0.318514 18.1367 -0.379486 16.4837 0.207514 15.0377L7.52851 2.21172C7.78051 1.75572 8.16251 1.37372 8.62851 1.11572C9.99351 0.359721 11.7195 0.856721 12.4745 2.22072L19.7475 14.9487C19.9095 15.3297 19.9785 15.6397 19.9955 15.9557C20.0345 16.7117 19.7765 17.4367 19.2705 17.9977C18.7645 18.5587 18.0695 18.8897 17.3145 18.9277L2.79451 18.9287H2.72251Z" fill="#FF1B00"/>
<path fill-rule="evenodd" clip-rule="evenodd" d="M9.12451 7.78223C9.12451 7.30023 9.51751 6.90723 9.99951 6.90723C10.4815 6.90723 10.8745 7.30023 10.8745 7.78223V10.6102C10.8745 11.0932 10.4815 11.4852 9.99951 11.4852C9.51751 11.4852 9.12451 11.0932 9.12451 10.6102V7.78223ZM9.12451 14.0313C9.12451 13.5463 9.51751 13.1513 9.99951 13.1513C10.4815 13.1513 10.8745 13.5413 10.8745 14.0203C10.8745 14.5133 10.4815 14.9063 9.99951 14.9063C9.51751 14.9063 9.12451 14.5133 9.12451 14.0313Z" fill="white"/>
</svg>
