<svg width="24" height="25" viewBox="0 0 24 25" fill="none" xmlns="http://www.w3.org/2000/svg">
<path d="M12 0.87207C5.37281 0.87207 0 6.24301 0 12.8721C0 19.5011 5.37281 24.8721 12 24.8721C18.6272 24.8721 24 19.4979 24 12.8721C24 6.24629 18.6272 0.87207 12 0.87207Z" fill="#2AD352"/>
<path d="M1.11441e-05 12.8721C-0.00269773 14.8556 0.488482 16.8085 1.42923 18.5547C2.62777 18.9066 3.87057 19.0849 5.1197 19.084C12.3338 19.084 18.1819 13.2358 18.1819 6.02177C18.183 4.75284 17.9992 3.49052 17.6363 2.27459C15.9015 1.35055 13.9655 0.868814 12 0.872087C5.37282 0.872087 1.11441e-05 6.24302 1.11441e-05 12.8721Z" fill="#74DA7F"/>
<path d="M18.8438 10.8836L11.6311 18.4581C11.4346 18.6644 11.1984 18.8288 10.9368 18.9415C10.6752 19.0543 10.3935 19.1131 10.1086 19.1144H10.0992C9.81595 19.1145 9.53553 19.0576 9.27464 18.9472C9.01374 18.8368 8.77769 18.6751 8.5805 18.4717L4.75315 14.5296C4.5554 14.331 4.39904 14.0952 4.29315 13.8358C4.18726 13.5764 4.13395 13.2985 4.13631 13.0184C4.13867 12.7382 4.19665 12.4612 4.3069 12.2036C4.41714 11.9461 4.57746 11.7129 4.77853 11.5178C4.9796 11.3226 5.21742 11.1694 5.4782 11.0669C5.73898 10.9644 6.01752 10.9147 6.29765 10.9207C6.57779 10.9268 6.85393 10.9884 7.11007 11.102C7.3662 11.2156 7.59722 11.3789 7.78971 11.5825L10.0842 13.946L15.7791 7.96565C15.9699 7.76109 16.1993 7.59638 16.4541 7.48106C16.709 7.36574 16.9841 7.30208 17.2637 7.29378C17.5433 7.28548 17.8218 7.33269 18.083 7.43269C18.3442 7.53268 18.583 7.68348 18.7856 7.87636C18.9882 8.06924 19.1505 8.30036 19.2632 8.55637C19.3758 8.81238 19.4367 9.08819 19.4421 9.36785C19.4475 9.6475 19.3974 9.92546 19.2947 10.1856C19.192 10.4458 19.0387 10.683 18.8438 10.8836Z" fill="white"/>
</svg>
