<svg width="100" height="15" viewBox="0 0 100 15" fill="none" xmlns="http://www.w3.org/2000/svg">
<path d="M3.43707 14.663C3.06963 14.8515 2.65268 14.5212 2.72693 14.0995L3.51703 9.5969L0.163401 6.40225C-0.149782 6.10335 0.012997 5.55695 0.432796 5.49793L5.09532 4.83539L7.17433 0.716425C7.36186 0.345176 7.86923 0.345176 8.05676 0.716425L10.1358 4.83539L14.7983 5.49793C15.2181 5.55695 15.3809 6.10335 15.0667 6.40225L11.7141 9.5969L12.5042 14.0995C12.5784 14.5212 12.1615 14.8515 11.794 14.663L7.61412 12.5155L3.43612 14.663H3.43707Z" fill="#FAB73C"/>
<path d="M24.5668 14.663C24.1994 14.8515 23.7824 14.5212 23.8567 14.0995L24.6468 9.5969L21.2932 6.40225C20.98 6.10335 21.1428 5.55695 21.5626 5.49793L26.2251 4.83539L28.3041 0.716425C28.4916 0.345176 28.999 0.345176 29.1865 0.716425L31.2655 4.83539L35.9281 5.49793C36.3479 5.55695 36.5106 6.10335 36.1965 6.40225L32.8438 9.5969L33.6339 14.0995C33.7082 14.5212 33.2912 14.8515 32.9238 14.663L28.7439 12.5155L24.5659 14.663H24.5668Z" fill="#FAB73C"/>
<path d="M45.6966 14.663C45.3291 14.8515 44.9122 14.5212 44.9865 14.0995L45.7766 9.5969L42.4229 6.40225C42.1097 6.10335 42.2725 5.55695 42.6923 5.49793L47.3548 4.83539L49.4338 0.716425C49.6214 0.345176 50.1288 0.345176 50.3163 0.716425L52.3953 4.83539L57.0578 5.49793C57.4776 5.55695 57.6404 6.10335 57.3263 6.40225L53.9736 9.5969L54.7637 14.0995C54.8379 14.5212 54.421 14.8515 54.0535 14.663L49.8736 12.5155L45.6956 14.663H45.6966Z" fill="#FAB73C"/>
<path d="M66.8264 14.663C66.4589 14.8515 66.042 14.5212 66.1162 14.0995L66.9063 9.5969L63.5527 6.40225C63.2395 6.10335 63.4023 5.55695 63.8221 5.49793L68.4846 4.83539L70.5636 0.716425C70.7511 0.345176 71.2585 0.345176 71.446 0.716425L73.525 4.83539L78.1876 5.49793C78.6074 5.55695 78.7702 6.10335 78.456 6.40225L75.1033 9.5969L75.8934 14.0995C75.9677 14.5212 75.5507 14.8515 75.1833 14.663L71.0034 12.5155L66.8254 14.663H66.8264Z" fill="#FAB73C"/>
<path d="M87.9562 14.663C87.5888 14.8515 87.1718 14.5212 87.2461 14.0995L88.0362 9.5969L84.6826 6.40225C84.3694 6.10335 84.5322 5.55695 84.952 5.49793L89.6145 4.83539L91.6935 0.716425C91.881 0.345176 92.3884 0.345176 92.5759 0.716425L94.6549 4.83539L99.3175 5.49793C99.7373 5.55695 99.9 6.10335 99.5859 6.40225L96.2332 9.5969L97.0233 14.0995C97.0976 14.5212 96.6806 14.8515 96.3132 14.663L92.1333 12.5155L87.9553 14.663H87.9562Z" fill="#FAB73C"/>
</svg>
